<svg width="40" height="49" viewBox="0 0 40 49" fill="none" xmlns="http://www.w3.org/2000/svg">
<path d="M7.20407 12.2588C7.56946 13.1888 8.57515 13.7918 9.53034 13.4305L12.6043 17.7027C12.6278 17.7353 12.6551 17.765 12.6856 17.791L14.5303 19.3648L13.8453 19.8079C13.6456 19.9372 13.5646 20.1892 13.6516 20.4106L14.4421 22.4228C14.5431 22.6798 14.8333 22.8063 15.0903 22.7053L24.0096 19.2011C24.133 19.1526 24.2321 19.0571 24.2851 18.9355C24.3381 18.8139 24.3406 18.6763 24.2921 18.5529L23.5015 16.5407C23.4144 16.319 23.1831 16.1895 22.9486 16.2312L22.1282 16.3772L22.408 13.9713C22.4127 13.9314 22.4125 13.891 22.4075 13.8512L21.7512 8.62907C22.697 8.24359 23.0232 7.11729 22.6579 6.18729C22.2899 5.25073 21.2726 4.64581 20.3114 5.02344C19.3502 5.40106 19.0167 6.5367 19.3847 7.47326C19.5168 7.80948 19.7257 8.09612 19.983 8.31216L19.0374 10.4662L17.2863 7.11795C17.7782 6.59519 17.9009 5.77966 17.6217 5.06886C17.2537 4.1323 16.2364 3.52738 15.2752 3.90501C14.314 4.28264 13.9805 5.41828 14.3485 6.35483C14.5725 6.92494 15.0236 7.36085 15.5595 7.54058L15.5818 10.8796L13.3253 8.41834C13.5955 7.92193 13.6293 7.2955 13.4053 6.7254C13.0373 5.78884 12.02 5.18392 11.0588 5.56155C10.0977 5.93918 9.76416 7.07482 10.1321 8.01137C10.4114 8.72217 11.0564 9.23609 11.7726 9.28417L12.769 12.929L10.61 11.9946C10.6514 11.6613 10.6093 11.3091 10.4772 10.9728C10.1093 10.0363 9.09196 9.43137 8.13078 9.809C7.16961 10.1866 6.83611 11.3223 7.20407 12.2588Z" fill="white" stroke="#34364C" stroke-linejoin="round"/>
<path d="M13.5079 22.0637C13.5079 23.8233 14.2019 25.4212 15.3299 26.598L12.963 28.2688C12.8303 28.3625 12.7513 28.5148 12.7513 28.6772V32.6563C12.7513 32.9325 12.9752 33.1563 13.2513 33.1563H15.6898C15.395 34.66 14.3843 36.1992 13.0405 37.6122C11.455 39.2792 9.54054 40.6288 8.27588 41.3514L8.08526 41.4604C7.92948 41.5494 7.83333 41.715 7.83333 41.8945V47.7886C7.83333 48.0648 8.05719 48.2886 8.33333 48.2886H32.1667C32.4428 48.2886 32.6667 48.0648 32.6667 47.7886V41.8945C32.6667 41.715 32.5705 41.5494 32.4147 41.4604L32.2241 41.3514C30.9595 40.6288 29.045 39.2792 27.4595 37.6122C26.1157 36.1992 25.105 34.66 24.8102 33.1563H27.2487C27.5248 33.1563 27.7487 32.9325 27.7487 32.6563V28.6772C27.7487 28.5148 27.6697 28.3625 27.537 28.2688L24.9414 26.4366C25.9808 25.2771 26.6138 23.744 26.6138 22.0637C26.6138 18.4447 23.6799 15.5108 20.0608 15.5108C16.4418 15.5108 13.5079 18.4447 13.5079 22.0637Z" fill="white" stroke="#34364C" stroke-linejoin="round"/>
<path d="M15.4198 19.0362C15.3174 18.8314 15.2019 18.6996 15.0244 18.5587C14.974 18.5186 14.9136 18.4551 14.8783 18.4001C14.8443 18.3472 14.7865 18.3176 14.7494 18.2712C14.6999 18.2094 14.6345 18.1461 14.5813 18.0869C14.5291 18.029 14.5318 17.9373 14.4657 17.8844C14.3702 17.808 14.2752 17.5932 14.268 17.4718C14.2622 17.3737 14.2811 17.2968 14.3014 17.2054C14.321 17.1176 14.3196 17.0309 14.3196 16.9389" stroke="white" stroke-linecap="square"/>
<path d="M20.577 16.9217C20.6989 16.7999 20.8306 16.5842 20.8683 16.4146C20.8919 16.3083 20.9926 16.2174 21.0068 16.0966C21.0108 16.0622 21.0466 15.994 21.0622 15.9591C21.0941 15.8873 21.1397 15.7989 21.1605 15.726C21.1784 15.6634 21.244 15.5914 21.2474 15.5293C21.2525 15.4373 21.3047 15.3191 21.341 15.2361C21.4428 15.0034 21.382 14.6487 21.2723 14.4291C21.2164 14.3173 21.2092 14.2017 21.1233 14.1063C21.0449 14.0192 20.9888 13.8946 20.938 13.793" stroke="white" stroke-linecap="square"/>
<path d="M14.558 17.3553C14.6368 17.3073 14.6919 17.2347 14.7682 17.1873C14.8233 17.1529 14.8964 17.1395 14.9573 17.1185C15.0576 17.0839 15.1685 17.0667 15.2657 17.0278C15.4595 16.9502 15.6753 16.8805 15.8817 16.8482C15.9967 16.8303 16.1099 16.841 16.2246 16.8138C16.3495 16.7843 16.4757 16.7504 16.5961 16.7059C16.8427 16.6147 17.1025 16.5299 17.3563 16.4614C17.5947 16.3971 17.8352 16.4099 18.0802 16.4099C18.3761 16.4099 18.6619 16.3544 18.9455 16.2761C18.9922 16.2633 19.1315 16.2544 19.1747 16.2819C19.2391 16.3228 19.3928 16.3303 19.3858 16.429C19.3762 16.563 19.2027 16.6783 19.105 16.7441C18.9561 16.8444 18.8131 16.9271 18.6418 16.981C18.4656 17.0364 18.3148 17.1282 18.1509 17.2102C18.0077 17.2818 17.8537 17.3287 17.7078 17.3935C17.5473 17.4649 17.3911 17.5524 17.2188 17.5922C17.0284 17.6361 16.8213 17.6413 16.6391 17.7163C16.4081 17.8115 16.1636 17.8804 15.9362 17.9828C15.868 18.0135 15.7943 18.0264 15.727 18.0563C15.6252 18.1016 15.5578 18.1942 15.4615 18.2493C15.4458 18.2582 15.4405 18.3325 15.4348 18.3524C15.4257 18.3841 15.3716 18.424 15.4004 18.4384" stroke="white" stroke-width="1.5" stroke-linecap="square"/>
<path d="M15.7092 15.3447C15.7939 15.3081 15.8585 15.2439 15.9407 15.2075C16.0001 15.1812 16.0743 15.1781 16.1375 15.1658C16.2417 15.1456 16.3539 15.144 16.4556 15.119C16.6583 15.0693 16.8818 15.0303 17.0907 15.0272C17.207 15.0254 17.3176 15.0519 17.435 15.041C17.5628 15.0291 17.6925 15.0132 17.8179 14.9859C18.0748 14.93 18.3439 14.8823 18.6048 14.8499C18.8498 14.8195 19.0861 14.8657 19.3288 14.8999C19.6218 14.9411 19.9126 14.9261 20.2043 14.8882C20.2523 14.8819 20.3915 14.8926 20.4304 14.9258C20.4885 14.9754 20.6397 15.0042 20.6189 15.1009C20.5907 15.2323 20.4028 15.3223 20.2969 15.3738C20.1355 15.4523 19.9824 15.5143 19.8052 15.5437C19.623 15.574 19.4609 15.6439 19.2871 15.7022C19.1354 15.7531 18.9763 15.7781 18.8227 15.822C18.6539 15.8702 18.487 15.9351 18.3108 15.9504C18.1161 15.9674 17.9104 15.9436 17.7195 15.9925C17.4775 16.0544 17.2258 16.0886 16.9863 16.1583C16.9145 16.1791 16.8397 16.1817 16.7689 16.2019C16.6617 16.2325 16.5821 16.3148 16.4791 16.3559C16.4623 16.3626 16.4466 16.4354 16.4382 16.4543C16.4248 16.4844 16.3656 16.5163 16.3922 16.5346" stroke="white" stroke-width="1.5" stroke-linecap="square"/>
<path d="M21.9481 16.6868C21.7838 16.559 21.6285 16.4656 21.5261 16.2814C21.5052 16.2438 21.4682 16.199 21.4682 16.1573C21.4682 16.0842 21.5066 16.0626 21.5344 16.0001C21.5613 15.9395 21.584 15.877 21.6171 15.819C21.6418 15.7758 21.6344 15.7378 21.6539 15.694C21.6784 15.6389 21.6691 15.5893 21.6842 15.6876C21.6909 15.7307 21.709 15.8874 21.7366 15.922C21.7943 15.9941 21.766 16.1556 21.766 16.2483C21.766 16.2719 21.7826 16.2807 21.7826 16.3062C21.7826 16.3152 21.6714 16.2015 21.6576 16.1739C21.5981 16.0549 21.5899 15.9084 21.5684 15.7795C21.5548 15.6979 21.6337 15.9316 21.6594 16.0102C21.6749 16.0577 21.6999 16.2045 21.6999 16.1546C21.6999 16.0754 21.6682 15.9801 21.6337 15.9091C21.5698 15.7778 21.6376 15.9749 21.6429 16.0194C21.6546 16.1193 21.6772 16.2844 21.6484 16.3853C21.6365 16.4267 21.5932 16.3246 21.5932 16.3246C21.5599 16.2423 21.533 16.1586 21.5188 16.0709C21.5184 16.0684 21.4936 15.9484 21.505 15.9496C21.5758 15.9566 21.6201 16.235 21.63 16.2915C21.6358 16.3246 21.6487 16.4243 21.5987 16.3605C21.5197 16.2594 21.4887 16.122 21.4847 15.9955C21.4829 15.9361 21.5182 15.8563 21.5427 15.8025C21.5775 15.7258 21.6387 15.6093 21.6502 15.5285C21.6639 15.4324 21.6668 15.3355 21.6842 15.2399C21.7177 15.0556 21.7216 14.8591 21.7624 14.6755C21.7768 14.6104 21.7587 14.5424 21.7743 14.4769C21.7892 14.4146 21.7991 14.3516 21.7991 14.2875C21.7991 14.1985 21.8563 14.2969 21.8782 14.3243C21.9002 14.3519 21.9315 14.4742 21.9315 14.5109C21.9315 14.6001 21.9481 14.7103 21.9481 14.8088C21.9481 14.9375 21.915 15.0679 21.915 15.1893C21.915 15.2672 21.8984 15.3411 21.8984 15.4201C21.8984 15.5509 21.9315 15.6813 21.9315 15.8098C21.9315 15.9959 21.9888 16.1787 21.9812 16.3687C21.9717 16.6052 21.7981 15.9281 21.7578 15.6949C21.7406 15.5957 21.7164 15.4973 21.7164 15.3962C21.7164 15.2543 21.7635 15.4651 21.7716 15.5046C21.8266 15.7743 21.7831 16.0507 21.7991 16.3228C21.7997 16.3328 21.7946 16.1124 21.7909 16.0672C21.7692 15.8028 21.7329 15.533 21.7329 15.2675C21.7329 15.1454 21.8117 15.3942 21.8157 15.409C21.8825 15.6554 21.8843 15.902 21.9021 16.1536C21.9083 16.241 21.9174 16.326 21.9306 16.412C21.9353 16.4428 21.9176 16.4247 21.9076 16.4074C21.8354 16.2816 21.824 16.1215 21.8092 15.9808C21.7698 15.6048 21.7329 15.2314 21.7329 14.8538C21.7329 14.6587 21.7542 14.4293 21.812 14.2416C21.8151 14.2315 21.8109 14.1735 21.824 14.1735C21.8382 14.1735 21.834 14.3552 21.8359 14.3739C21.8516 14.5289 21.8819 14.6982 21.8819 14.8529C21.8819 15.3003 21.8517 15.7456 21.8901 16.1913C21.8925 16.2185 21.9315 16.4577 21.8911 16.3779C21.8414 16.2801 21.8216 16.168 21.7991 16.0617C21.7522 15.8403 21.711 15.6176 21.6943 15.3916C21.6653 14.9981 21.7295 14.6246 21.8028 14.2416C21.8055 14.2276 21.8252 14.1003 21.8506 14.1202C21.905 14.163 21.9188 14.2835 21.9315 14.3445C21.9624 14.4924 21.9646 14.6417 21.9646 14.7922C21.9646 15.1033 21.932 15.3992 21.9021 15.7069C21.8893 15.8386 21.8545 15.9715 21.8497 16.1031C21.8441 16.2582 21.8507 16.4139 21.8488 16.5691C21.8486 16.583 21.8483 16.6433 21.8286 16.5949C21.7582 16.4229 21.7367 16.2182 21.7109 16.0369C21.6639 15.7063 21.6274 15.3251 21.6769 14.9898C21.6965 14.857 21.7087 14.7101 21.7366 14.5799C21.7716 14.4165 21.8535 14.8984 21.8616 15.0652C21.8694 15.2253 21.8783 15.7057 21.8644 15.546C21.8419 15.287 21.7964 15.0364 21.7991 14.7747C21.8011 14.5873 21.8931 14.789 21.9131 14.8621C22.015 15.233 21.9025 15.67 21.8616 16.047C21.8465 16.1862 21.8351 16.3258 21.8166 16.4643C21.8088 16.523 21.8157 16.5873 21.8157 16.6464C21.8157 16.7777 21.7107 16.6096 21.6907 16.5636C21.6428 16.4537 21.6337 16.3194 21.6337 16.2005C21.6337 16.1173 21.6549 16.0995 21.7274 16.172C21.818 16.2626 21.8911 16.3931 21.9113 16.5213C21.9178 16.563 21.9219 16.5975 21.9389 16.6363C21.9389 16.6363 21.9553 16.6814 21.9444 16.6795C21.845 16.6614 21.7595 16.4076 21.7284 16.3311C21.6739 16.197 21.843 16.5159 21.8552 16.5406C21.8793 16.5896 21.9179 16.6386 21.9352 16.6905C21.9496 16.7337 21.8336 16.619 21.8267 16.6114C21.7892 16.5699 21.7456 16.4615 21.6999 16.4386" stroke="white" stroke-width="0.1" stroke-linecap="round"/>
</svg>
