<svg width="701" height="601" viewBox="0 0 701 601" fill="none" xmlns="http://www.w3.org/2000/svg">
<path fill-rule="evenodd" clip-rule="evenodd" d="M100 400H0V500H100V400ZM50 490C72.0914 490 90 472.091 90 450C90 427.909 72.0914 410 50 410C27.9086 410 10 427.909 10 450C10 472.091 27.9086 490 50 490Z" fill="#3B59C0"/>
<line x1="1.5" y1="500.005" x2="1.5" y2="400" stroke="#324CA3"/>
<line y1="401.5" x2="100.005" y2="401.5" stroke="#324CA3"/>
<line y1="498.5" x2="100.005" y2="498.5" stroke="#324CA3"/>
<line x1="98.5" y1="500.005" x2="98.5" y2="400" stroke="#324CA3"/>
<path fill-rule="evenodd" clip-rule="evenodd" d="M200 500H100V600H200V500ZM150 590C172.091 590 190 572.091 190 550C190 527.909 172.091 510 150 510C127.909 510 110 527.909 110 550C110 572.091 127.909 590 150 590Z" fill="#3B59C0"/>
<line x1="101.5" y1="600.005" x2="101.5" y2="500" stroke="#324CA3"/>
<line x1="100" y1="501.5" x2="200.005" y2="501.5" stroke="#324CA3"/>
<line x1="100" y1="598.5" x2="200.005" y2="598.5" stroke="#324CA3"/>
<line x1="198.5" y1="600.005" x2="198.5" y2="500" stroke="#324CA3"/>
<path fill-rule="evenodd" clip-rule="evenodd" d="M200 400H100V500H200V400ZM150 490C172.091 490 190 472.091 190 450C190 427.909 172.091 410 150 410C127.909 410 110 427.909 110 450C110 472.091 127.909 490 150 490Z" fill="#3B59C0"/>
<line x1="101.5" y1="500.005" x2="101.5" y2="400" stroke="#324CA3"/>
<line x1="100" y1="401.5" x2="200.005" y2="401.5" stroke="#324CA3"/>
<line x1="100" y1="498.5" x2="200.005" y2="498.5" stroke="#324CA3"/>
<line x1="198.5" y1="500.005" x2="198.5" y2="400" stroke="#324CA3"/>
<path fill-rule="evenodd" clip-rule="evenodd" d="M100 500H0V600H100V500ZM50 590C72.0914 590 90 572.091 90 550C90 527.909 72.0914 510 50 510C27.9086 510 10 527.909 10 550C10 572.091 27.9086 590 50 590Z" fill="#3B59C0"/>
<line x1="1.5" y1="600.005" x2="1.5" y2="500" stroke="#324CA3"/>
<line y1="501.5" x2="100.005" y2="501.5" stroke="#324CA3"/>
<line y1="598.5" x2="100.005" y2="598.5" stroke="#324CA3"/>
<line x1="98.5" y1="600.005" x2="98.5" y2="500" stroke="#324CA3"/>
<path fill-rule="evenodd" clip-rule="evenodd" d="M500 400H400V500H500V400ZM450 490C472.091 490 490 472.091 490 450C490 427.909 472.091 410 450 410C427.909 410 410 427.909 410 450C410 472.091 427.909 490 450 490Z" fill="#3B59C0"/>
<line x1="401.5" y1="500.005" x2="401.5" y2="400" stroke="#324CA3"/>
<line x1="400" y1="401.5" x2="500.005" y2="401.5" stroke="#324CA3"/>
<line x1="400" y1="498.5" x2="500.005" y2="498.5" stroke="#324CA3"/>
<line x1="498.5" y1="500.005" x2="498.5" y2="400" stroke="#324CA3"/>
<path fill-rule="evenodd" clip-rule="evenodd" d="M600 500H500V600H600V500ZM550 590C572.091 590 590 572.091 590 550C590 527.909 572.091 510 550 510C527.909 510 510 527.909 510 550C510 572.091 527.909 590 550 590Z" fill="#3B59C0"/>
<line x1="501.5" y1="600.005" x2="501.5" y2="500" stroke="#324CA3"/>
<line x1="500" y1="501.5" x2="600.005" y2="501.5" stroke="#324CA3"/>
<line x1="500" y1="598.5" x2="600.005" y2="598.5" stroke="#324CA3"/>
<line x1="598.5" y1="600.005" x2="598.5" y2="500" stroke="#324CA3"/>
<path fill-rule="evenodd" clip-rule="evenodd" d="M600 400H500V500H600V400ZM550 490C572.091 490 590 472.091 590 450C590 427.909 572.091 410 550 410C527.909 410 510 427.909 510 450C510 472.091 527.909 490 550 490Z" fill="#3B59C0"/>
<line x1="501.5" y1="500.005" x2="501.5" y2="400" stroke="#324CA3"/>
<line x1="500" y1="401.5" x2="600.005" y2="401.5" stroke="#324CA3"/>
<line x1="500" y1="498.5" x2="600.005" y2="498.5" stroke="#324CA3"/>
<line x1="598.5" y1="500.005" x2="598.5" y2="400" stroke="#324CA3"/>
<path fill-rule="evenodd" clip-rule="evenodd" d="M700 500H600V600H700V500ZM650 590C672.091 590 690 572.091 690 550C690 527.909 672.091 510 650 510C627.909 510 610 527.909 610 550C610 572.091 627.909 590 650 590Z" fill="#3B59C0"/>
<line x1="601.5" y1="600.005" x2="601.5" y2="500" stroke="#324CA3"/>
<line x1="600" y1="501.5" x2="700.005" y2="501.5" stroke="#324CA3"/>
<line x1="600" y1="598.5" x2="700.005" y2="598.5" stroke="#324CA3"/>
<line x1="698.5" y1="600.005" x2="698.5" y2="500" stroke="#324CA3"/>
<path fill-rule="evenodd" clip-rule="evenodd" d="M700 400H600V500H700V400ZM650 490C672.091 490 690 472.091 690 450C690 427.909 672.091 410 650 410C627.909 410 610 427.909 610 450C610 472.091 627.909 490 650 490Z" fill="#3B59C0"/>
<line x1="601.5" y1="500.005" x2="601.5" y2="400" stroke="#324CA3"/>
<line x1="600" y1="401.5" x2="700.005" y2="401.5" stroke="#324CA3"/>
<line x1="600" y1="498.5" x2="700.005" y2="498.5" stroke="#324CA3"/>
<line x1="698.5" y1="500.005" x2="698.5" y2="400" stroke="#324CA3"/>
<path fill-rule="evenodd" clip-rule="evenodd" d="M500 500H400V600H500V500ZM450 590C472.091 590 490 572.091 490 550C490 527.909 472.091 510 450 510C427.909 510 410 527.909 410 550C410 572.091 427.909 590 450 590Z" fill="#3B59C0"/>
<line x1="401.5" y1="600.005" x2="401.5" y2="500" stroke="#324CA3"/>
<line x1="400" y1="501.5" x2="500.005" y2="501.5" stroke="#324CA3"/>
<line x1="400" y1="598.5" x2="500.005" y2="598.5" stroke="#324CA3"/>
<line x1="498.5" y1="600.005" x2="498.5" y2="500" stroke="#324CA3"/>
<path fill-rule="evenodd" clip-rule="evenodd" d="M300 400H200V500H300V400ZM250 490C272.091 490 290 472.091 290 450C290 427.909 272.091 410 250 410C227.909 410 210 427.909 210 450C210 472.091 227.909 490 250 490Z" fill="#3B59C0"/>
<line x1="201.5" y1="500.005" x2="201.5" y2="400" stroke="#324CA3"/>
<line x1="200" y1="401.5" x2="300.005" y2="401.5" stroke="#324CA3"/>
<line x1="200" y1="498.5" x2="300.005" y2="498.5" stroke="#324CA3"/>
<line x1="298.5" y1="500.005" x2="298.5" y2="400" stroke="#324CA3"/>
<path fill-rule="evenodd" clip-rule="evenodd" d="M400 500H300V600H400V500ZM350 590C372.091 590 390 572.091 390 550C390 527.909 372.091 510 350 510C327.909 510 310 527.909 310 550C310 572.091 327.909 590 350 590Z" fill="#3B59C0"/>
<line x1="301.5" y1="600.005" x2="301.5" y2="500" stroke="#324CA3"/>
<line x1="300" y1="501.5" x2="400.005" y2="501.5" stroke="#324CA3"/>
<line x1="300" y1="598.5" x2="400.005" y2="598.5" stroke="#324CA3"/>
<line x1="398.5" y1="600.005" x2="398.5" y2="500" stroke="#324CA3"/>
<path fill-rule="evenodd" clip-rule="evenodd" d="M400 400H300V500H400V400ZM350 490C372.091 490 390 472.091 390 450C390 427.909 372.091 410 350 410C327.909 410 310 427.909 310 450C310 472.091 327.909 490 350 490Z" fill="#3B59C0"/>
<line x1="301.5" y1="500.005" x2="301.5" y2="400" stroke="#324CA3"/>
<line x1="300" y1="401.5" x2="400.005" y2="401.5" stroke="#324CA3"/>
<line x1="300" y1="498.5" x2="400.005" y2="498.5" stroke="#324CA3"/>
<line x1="398.5" y1="500.005" x2="398.5" y2="400" stroke="#324CA3"/>
<path fill-rule="evenodd" clip-rule="evenodd" d="M300 500H200V600H300V500ZM250 590C272.091 590 290 572.091 290 550C290 527.909 272.091 510 250 510C227.909 510 210 527.909 210 550C210 572.091 227.909 590 250 590Z" fill="#3B59C0"/>
<line x1="201.5" y1="600.005" x2="201.5" y2="500" stroke="#324CA3"/>
<line x1="200" y1="501.5" x2="300.005" y2="501.5" stroke="#324CA3"/>
<line x1="200" y1="598.5" x2="300.005" y2="598.5" stroke="#324CA3"/>
<line x1="298.5" y1="600.005" x2="298.5" y2="500" stroke="#324CA3"/>
<path fill-rule="evenodd" clip-rule="evenodd" d="M100 0H0V100H100V0ZM50 90C72.0914 90 90 72.0914 90 50C90 27.9086 72.0914 10 50 10C27.9086 10 10 27.9086 10 50C10 72.0914 27.9086 90 50 90Z" fill="#3B59C0"/>
<line x1="1.5" y1="100.005" x2="1.5" y2="7.62939e-06" stroke="#324CA3"/>
<line y1="1.5" x2="100.005" y2="1.5" stroke="#324CA3"/>
<line y1="98.5" x2="100.005" y2="98.5" stroke="#324CA3"/>
<line x1="98.5" y1="100.005" x2="98.5" y2="7.62939e-06" stroke="#324CA3"/>
<path fill-rule="evenodd" clip-rule="evenodd" d="M200 100H100V200H200V100ZM150 190C172.091 190 190 172.091 190 150C190 127.909 172.091 110 150 110C127.909 110 110 127.909 110 150C110 172.091 127.909 190 150 190Z" fill="#3B59C0"/>
<line x1="101.5" y1="200.005" x2="101.5" y2="100" stroke="#324CA3"/>
<line x1="100" y1="101.5" x2="200.005" y2="101.5" stroke="#324CA3"/>
<line x1="100" y1="198.5" x2="200.005" y2="198.5" stroke="#324CA3"/>
<line x1="198.5" y1="200.005" x2="198.5" y2="100" stroke="#324CA3"/>
<path fill-rule="evenodd" clip-rule="evenodd" d="M200 0H100V100H200V0ZM150 90C172.091 90 190 72.0914 190 50C190 27.9086 172.091 10 150 10C127.909 10 110 27.9086 110 50C110 72.0914 127.909 90 150 90Z" fill="#3B59C0"/>
<line x1="101.5" y1="100.005" x2="101.5" y2="7.62939e-06" stroke="#324CA3"/>
<line x1="100" y1="1.5" x2="200.005" y2="1.5" stroke="#324CA3"/>
<line x1="100" y1="98.5" x2="200.005" y2="98.5" stroke="#324CA3"/>
<line x1="198.5" y1="100.005" x2="198.5" y2="7.62939e-06" stroke="#324CA3"/>
<path fill-rule="evenodd" clip-rule="evenodd" d="M100 100H0V200H100V100ZM50 190C72.0914 190 90 172.091 90 150C90 127.909 72.0914 110 50 110C27.9086 110 10 127.909 10 150C10 172.091 27.9086 190 50 190Z" fill="#3B59C0"/>
<line x1="1.5" y1="200.005" x2="1.5" y2="100" stroke="#324CA3"/>
<line y1="101.5" x2="100.005" y2="101.5" stroke="#324CA3"/>
<line y1="198.5" x2="100.005" y2="198.5" stroke="#324CA3"/>
<line x1="98.5" y1="200.005" x2="98.5" y2="100" stroke="#324CA3"/>
<path fill-rule="evenodd" clip-rule="evenodd" d="M500 0H400V100H500V0ZM450 90C472.091 90 490 72.0914 490 50C490 27.9086 472.091 10 450 10C427.909 10 410 27.9086 410 50C410 72.0914 427.909 90 450 90Z" fill="#3B59C0"/>
<line x1="401.5" y1="100.005" x2="401.5" y2="7.62939e-06" stroke="#324CA3"/>
<line x1="400" y1="1.5" x2="500.005" y2="1.5" stroke="#324CA3"/>
<line x1="400" y1="98.5" x2="500.005" y2="98.5" stroke="#324CA3"/>
<line x1="498.5" y1="100.005" x2="498.5" y2="7.62939e-06" stroke="#324CA3"/>
<path fill-rule="evenodd" clip-rule="evenodd" d="M600 100H500V200H600V100ZM550 190C572.091 190 590 172.091 590 150C590 127.909 572.091 110 550 110C527.909 110 510 127.909 510 150C510 172.091 527.909 190 550 190Z" fill="#3B59C0"/>
<line x1="501.5" y1="200.005" x2="501.5" y2="100" stroke="#324CA3"/>
<line x1="500" y1="101.5" x2="600.005" y2="101.5" stroke="#324CA3"/>
<line x1="500" y1="198.5" x2="600.005" y2="198.5" stroke="#324CA3"/>
<line x1="598.5" y1="200.005" x2="598.5" y2="100" stroke="#324CA3"/>
<path fill-rule="evenodd" clip-rule="evenodd" d="M600 0H500V100H600V0ZM550 90C572.091 90 590 72.0914 590 50C590 27.9086 572.091 10 550 10C527.909 10 510 27.9086 510 50C510 72.0914 527.909 90 550 90Z" fill="#3B59C0"/>
<line x1="501.5" y1="100.005" x2="501.5" y2="7.62939e-06" stroke="#324CA3"/>
<line x1="500" y1="1.5" x2="600.005" y2="1.5" stroke="#324CA3"/>
<line x1="500" y1="98.5" x2="600.005" y2="98.5" stroke="#324CA3"/>
<line x1="598.5" y1="100.005" x2="598.5" y2="7.62939e-06" stroke="#324CA3"/>
<path fill-rule="evenodd" clip-rule="evenodd" d="M700 100H600V200H700V100ZM650 190C672.091 190 690 172.091 690 150C690 127.909 672.091 110 650 110C627.909 110 610 127.909 610 150C610 172.091 627.909 190 650 190Z" fill="#3B59C0"/>
<line x1="601.5" y1="200.005" x2="601.5" y2="100" stroke="#324CA3"/>
<line x1="600" y1="101.5" x2="700.005" y2="101.5" stroke="#324CA3"/>
<line x1="600" y1="198.5" x2="700.005" y2="198.5" stroke="#324CA3"/>
<line x1="698.5" y1="200.005" x2="698.5" y2="100" stroke="#324CA3"/>
<path fill-rule="evenodd" clip-rule="evenodd" d="M700 0H600V100H700V0ZM650 90C672.091 90 690 72.0914 690 50C690 27.9086 672.091 10 650 10C627.909 10 610 27.9086 610 50C610 72.0914 627.909 90 650 90Z" fill="#3B59C0"/>
<line x1="601.5" y1="100.005" x2="601.5" y2="7.62939e-06" stroke="#324CA3"/>
<line x1="600" y1="1.5" x2="700.005" y2="1.5" stroke="#324CA3"/>
<line x1="600" y1="98.5" x2="700.005" y2="98.5" stroke="#324CA3"/>
<line x1="698.5" y1="100.005" x2="698.5" y2="7.62939e-06" stroke="#324CA3"/>
<path fill-rule="evenodd" clip-rule="evenodd" d="M500 100H400V200H500V100ZM450 190C472.091 190 490 172.091 490 150C490 127.909 472.091 110 450 110C427.909 110 410 127.909 410 150C410 172.091 427.909 190 450 190Z" fill="#3B59C0"/>
<line x1="401.5" y1="200.005" x2="401.5" y2="100" stroke="#324CA3"/>
<line x1="400" y1="101.5" x2="500.005" y2="101.5" stroke="#324CA3"/>
<line x1="400" y1="198.5" x2="500.005" y2="198.5" stroke="#324CA3"/>
<line x1="498.5" y1="200.005" x2="498.5" y2="100" stroke="#324CA3"/>
<path fill-rule="evenodd" clip-rule="evenodd" d="M300 0H200V100H300V0ZM250 90C272.091 90 290 72.0914 290 50C290 27.9086 272.091 10 250 10C227.909 10 210 27.9086 210 50C210 72.0914 227.909 90 250 90Z" fill="#3B59C0"/>
<line x1="201.5" y1="100.005" x2="201.5" y2="7.62939e-06" stroke="#324CA3"/>
<line x1="200" y1="1.5" x2="300.005" y2="1.5" stroke="#324CA3"/>
<line x1="200" y1="98.5" x2="300.005" y2="98.5" stroke="#324CA3"/>
<line x1="298.5" y1="100.005" x2="298.5" y2="7.62939e-06" stroke="#324CA3"/>
<path fill-rule="evenodd" clip-rule="evenodd" d="M400 100H300V200H400V100ZM350 190C372.091 190 390 172.091 390 150C390 127.909 372.091 110 350 110C327.909 110 310 127.909 310 150C310 172.091 327.909 190 350 190Z" fill="#3B59C0"/>
<line x1="301.5" y1="200.005" x2="301.5" y2="100" stroke="#324CA3"/>
<line x1="300" y1="101.5" x2="400.005" y2="101.5" stroke="#324CA3"/>
<line x1="300" y1="198.5" x2="400.005" y2="198.5" stroke="#324CA3"/>
<line x1="398.5" y1="200.005" x2="398.5" y2="100" stroke="#324CA3"/>
<path fill-rule="evenodd" clip-rule="evenodd" d="M400 0H300V100H400V0ZM350 90C372.091 90 390 72.0914 390 50C390 27.9086 372.091 10 350 10C327.909 10 310 27.9086 310 50C310 72.0914 327.909 90 350 90Z" fill="#3B59C0"/>
<line x1="301.5" y1="100.005" x2="301.5" y2="7.62939e-06" stroke="#324CA3"/>
<line x1="300" y1="1.5" x2="400.005" y2="1.5" stroke="#324CA3"/>
<line x1="300" y1="98.5" x2="400.005" y2="98.5" stroke="#324CA3"/>
<line x1="398.5" y1="100.005" x2="398.5" y2="7.62939e-06" stroke="#324CA3"/>
<path fill-rule="evenodd" clip-rule="evenodd" d="M300 100H200V200H300V100ZM250 190C272.091 190 290 172.091 290 150C290 127.909 272.091 110 250 110C227.909 110 210 127.909 210 150C210 172.091 227.909 190 250 190Z" fill="#3B59C0"/>
<line x1="201.5" y1="200.005" x2="201.5" y2="100" stroke="#324CA3"/>
<line x1="200" y1="101.5" x2="300.005" y2="101.5" stroke="#324CA3"/>
<line x1="200" y1="198.5" x2="300.005" y2="198.5" stroke="#324CA3"/>
<line x1="298.5" y1="200.005" x2="298.5" y2="100" stroke="#324CA3"/>
<path fill-rule="evenodd" clip-rule="evenodd" d="M100 200H0V300H100V200ZM50 290C72.0914 290 90 272.091 90 250C90 227.909 72.0914 210 50 210C27.9086 210 10 227.909 10 250C10 272.091 27.9086 290 50 290Z" fill="#3B59C0"/>
<line x1="1.5" y1="300.005" x2="1.5" y2="200" stroke="#324CA3"/>
<line y1="201.5" x2="100.005" y2="201.5" stroke="#324CA3"/>
<line y1="298.5" x2="100.005" y2="298.5" stroke="#324CA3"/>
<line x1="98.5" y1="300.005" x2="98.5" y2="200" stroke="#324CA3"/>
<path fill-rule="evenodd" clip-rule="evenodd" d="M200 300H100V400H200V300ZM150 390C172.091 390 190 372.091 190 350C190 327.909 172.091 310 150 310C127.909 310 110 327.909 110 350C110 372.091 127.909 390 150 390Z" fill="#3B59C0"/>
<line x1="101.5" y1="400.005" x2="101.5" y2="300" stroke="#324CA3"/>
<line x1="100" y1="301.5" x2="200.005" y2="301.5" stroke="#324CA3"/>
<line x1="100" y1="398.5" x2="200.005" y2="398.5" stroke="#324CA3"/>
<line x1="198.5" y1="400.005" x2="198.5" y2="300" stroke="#324CA3"/>
<path fill-rule="evenodd" clip-rule="evenodd" d="M200 200H100V300H200V200ZM150 290C172.091 290 190 272.091 190 250C190 227.909 172.091 210 150 210C127.909 210 110 227.909 110 250C110 272.091 127.909 290 150 290Z" fill="#3B59C0"/>
<line x1="101.5" y1="300.005" x2="101.5" y2="200" stroke="#324CA3"/>
<line x1="100" y1="201.5" x2="200.005" y2="201.5" stroke="#324CA3"/>
<line x1="100" y1="298.5" x2="200.005" y2="298.5" stroke="#324CA3"/>
<line x1="198.5" y1="300.005" x2="198.5" y2="200" stroke="#324CA3"/>
<path fill-rule="evenodd" clip-rule="evenodd" d="M100 300H0V400H100V300ZM50 390C72.0914 390 90 372.091 90 350C90 327.909 72.0914 310 50 310C27.9086 310 10 327.909 10 350C10 372.091 27.9086 390 50 390Z" fill="#3B59C0"/>
<line x1="1.5" y1="400.005" x2="1.5" y2="300" stroke="#324CA3"/>
<line y1="301.5" x2="100.005" y2="301.5" stroke="#324CA3"/>
<line y1="398.5" x2="100.005" y2="398.5" stroke="#324CA3"/>
<line x1="98.5" y1="400.005" x2="98.5" y2="300" stroke="#324CA3"/>
<path fill-rule="evenodd" clip-rule="evenodd" d="M500 200H400V300H500V200ZM450 290C472.091 290 490 272.091 490 250C490 227.909 472.091 210 450 210C427.909 210 410 227.909 410 250C410 272.091 427.909 290 450 290Z" fill="#3B59C0"/>
<line x1="401.5" y1="300.005" x2="401.5" y2="200" stroke="#324CA3"/>
<line x1="400" y1="201.5" x2="500.005" y2="201.5" stroke="#324CA3"/>
<line x1="400" y1="298.5" x2="500.005" y2="298.5" stroke="#324CA3"/>
<line x1="498.5" y1="300.005" x2="498.5" y2="200" stroke="#324CA3"/>
<path fill-rule="evenodd" clip-rule="evenodd" d="M600 300H500V400H600V300ZM550 390C572.091 390 590 372.091 590 350C590 327.909 572.091 310 550 310C527.909 310 510 327.909 510 350C510 372.091 527.909 390 550 390Z" fill="#3B59C0"/>
<line x1="501.5" y1="400.005" x2="501.5" y2="300" stroke="#324CA3"/>
<line x1="500" y1="301.5" x2="600.005" y2="301.5" stroke="#324CA3"/>
<line x1="500" y1="398.5" x2="600.005" y2="398.5" stroke="#324CA3"/>
<line x1="598.5" y1="400.005" x2="598.5" y2="300" stroke="#324CA3"/>
<path fill-rule="evenodd" clip-rule="evenodd" d="M600 200H500V300H600V200ZM550 290C572.091 290 590 272.091 590 250C590 227.909 572.091 210 550 210C527.909 210 510 227.909 510 250C510 272.091 527.909 290 550 290Z" fill="#3B59C0"/>
<line x1="501.5" y1="300.005" x2="501.5" y2="200" stroke="#324CA3"/>
<line x1="500" y1="201.5" x2="600.005" y2="201.5" stroke="#324CA3"/>
<line x1="500" y1="298.5" x2="600.005" y2="298.5" stroke="#324CA3"/>
<line x1="598.5" y1="300.005" x2="598.5" y2="200" stroke="#324CA3"/>
<path fill-rule="evenodd" clip-rule="evenodd" d="M700 300H600V400H700V300ZM650 390C672.091 390 690 372.091 690 350C690 327.909 672.091 310 650 310C627.909 310 610 327.909 610 350C610 372.091 627.909 390 650 390Z" fill="#3B59C0"/>
<line x1="601.5" y1="400.005" x2="601.5" y2="300" stroke="#324CA3"/>
<line x1="600" y1="301.5" x2="700.005" y2="301.5" stroke="#324CA3"/>
<line x1="600" y1="398.5" x2="700.005" y2="398.5" stroke="#324CA3"/>
<line x1="698.5" y1="400.005" x2="698.5" y2="300" stroke="#324CA3"/>
<path fill-rule="evenodd" clip-rule="evenodd" d="M700 200H600V300H700V200ZM650 290C672.091 290 690 272.091 690 250C690 227.909 672.091 210 650 210C627.909 210 610 227.909 610 250C610 272.091 627.909 290 650 290Z" fill="#3B59C0"/>
<line x1="601.5" y1="300.005" x2="601.5" y2="200" stroke="#324CA3"/>
<line x1="600" y1="201.5" x2="700.005" y2="201.5" stroke="#324CA3"/>
<line x1="600" y1="298.5" x2="700.005" y2="298.5" stroke="#324CA3"/>
<line x1="698.5" y1="300.005" x2="698.5" y2="200" stroke="#324CA3"/>
<path fill-rule="evenodd" clip-rule="evenodd" d="M500 300H400V400H500V300ZM450 390C472.091 390 490 372.091 490 350C490 327.909 472.091 310 450 310C427.909 310 410 327.909 410 350C410 372.091 427.909 390 450 390Z" fill="#3B59C0"/>
<line x1="401.5" y1="400.005" x2="401.5" y2="300" stroke="#324CA3"/>
<line x1="400" y1="301.5" x2="500.005" y2="301.5" stroke="#324CA3"/>
<line x1="400" y1="398.5" x2="500.005" y2="398.5" stroke="#324CA3"/>
<line x1="498.5" y1="400.005" x2="498.5" y2="300" stroke="#324CA3"/>
<path fill-rule="evenodd" clip-rule="evenodd" d="M300 200H200V300H300V200ZM250 290C272.091 290 290 272.091 290 250C290 227.909 272.091 210 250 210C227.909 210 210 227.909 210 250C210 272.091 227.909 290 250 290Z" fill="#3B59C0"/>
<line x1="201.5" y1="300.005" x2="201.5" y2="200" stroke="#324CA3"/>
<line x1="200" y1="201.5" x2="300.005" y2="201.5" stroke="#324CA3"/>
<line x1="200" y1="298.5" x2="300.005" y2="298.5" stroke="#324CA3"/>
<line x1="298.5" y1="300.005" x2="298.5" y2="200" stroke="#324CA3"/>
<path fill-rule="evenodd" clip-rule="evenodd" d="M400 300H300V400H400V300ZM350 390C372.091 390 390 372.091 390 350C390 327.909 372.091 310 350 310C327.909 310 310 327.909 310 350C310 372.091 327.909 390 350 390Z" fill="#3B59C0"/>
<line x1="301.5" y1="400.005" x2="301.5" y2="300" stroke="#324CA3"/>
<line x1="300" y1="301.5" x2="400.005" y2="301.5" stroke="#324CA3"/>
<line x1="300" y1="398.5" x2="400.005" y2="398.5" stroke="#324CA3"/>
<line x1="398.5" y1="400.005" x2="398.5" y2="300" stroke="#324CA3"/>
<path fill-rule="evenodd" clip-rule="evenodd" d="M400 200H300V300H400V200ZM350 290C372.091 290 390 272.091 390 250C390 227.909 372.091 210 350 210C327.909 210 310 227.909 310 250C310 272.091 327.909 290 350 290Z" fill="#3B59C0"/>
<line x1="301.5" y1="300.005" x2="301.5" y2="200" stroke="#324CA3"/>
<line x1="300" y1="201.5" x2="400.005" y2="201.5" stroke="#324CA3"/>
<line x1="300" y1="298.5" x2="400.005" y2="298.5" stroke="#324CA3"/>
<line x1="398.5" y1="300.005" x2="398.5" y2="200" stroke="#324CA3"/>
<path fill-rule="evenodd" clip-rule="evenodd" d="M300 300H200V400H300V300ZM250 390C272.091 390 290 372.091 290 350C290 327.909 272.091 310 250 310C227.909 310 210 327.909 210 350C210 372.091 227.909 390 250 390Z" fill="#3B59C0"/>
<line x1="201.5" y1="400.005" x2="201.5" y2="300" stroke="#324CA3"/>
<line x1="200" y1="301.5" x2="300.005" y2="301.5" stroke="#324CA3"/>
<line x1="200" y1="398.5" x2="300.005" y2="398.5" stroke="#324CA3"/>
<line x1="298.5" y1="400.005" x2="298.5" y2="300" stroke="#324CA3"/>
</svg>
