<svg width="80" height="80" viewBox="0 0 80 80" fill="none" xmlns="http://www.w3.org/2000/svg">
<rect width="80" height="80" rx="40" fill="#F7E333"/>
<rect width="80" height="80" rx="40" fill="url(#paint0_linear_1_473)"/>
<rect x="1" y="1" width="78" height="78" rx="39" stroke="black" stroke-opacity="0.2" stroke-width="2"/>
<g filter="url(#filter0_di_1_473)">
<path fill-rule="evenodd" clip-rule="evenodd" d="M40 9C39.8429 9 39.6861 9.00117 39.5296 9.00349C38.9773 9.0117 38.523 8.57069 38.5148 8.01847C38.5066 7.46625 38.9476 7.01193 39.4998 7.00372C39.6663 7.00124 39.833 7 40 7C40.167 7 40.3337 7.00124 40.5002 7.00372C41.0524 7.01193 41.4934 7.46625 41.4852 8.01847C41.477 8.57069 41.0227 9.0117 40.4704 9.00349C40.3139 9.00117 40.1571 9 40 9ZM29.1277 9.8776C29.3315 10.3909 29.0806 10.9722 28.5673 11.176C28.2769 11.2913 27.9887 11.4108 27.7028 11.5345C27.1959 11.7538 26.6072 11.5207 26.3879 11.0138C26.1686 10.5069 26.4018 9.91821 26.9087 9.69893C27.2132 9.56718 27.5201 9.43989 27.8293 9.31714C28.3426 9.11336 28.9239 9.36429 29.1277 9.8776ZM50.8723 9.8776C51.0761 9.36429 51.6574 9.11336 52.1707 9.31714C52.4799 9.43989 52.7868 9.56718 53.0914 9.69893C53.5982 9.91821 53.8314 10.5069 53.6121 11.0138C53.3928 11.5207 52.8041 11.7538 52.2973 11.5345C52.0113 11.4108 51.7231 11.2913 51.4327 11.176C50.9194 10.9722 50.6685 10.3909 50.8723 9.8776ZM18.4346 16.337C18.8192 16.7333 18.8097 17.3664 18.4133 17.751C18.1893 17.9685 17.9685 18.1893 17.751 18.4133C17.3664 18.8097 16.7333 18.8192 16.337 18.4346C15.9406 18.0499 15.9311 17.4168 16.3157 17.0205C16.5471 16.7821 16.7821 16.5471 17.0205 16.3157C17.4169 15.9311 18.0499 15.9406 18.4346 16.337ZM61.5654 16.337C61.9501 15.9406 62.5832 15.9311 62.9795 16.3157C63.2179 16.5471 63.4529 16.7821 63.6843 17.0205C64.0689 17.4169 64.0594 18.0499 63.663 18.4346C63.2667 18.8192 62.6336 18.8097 62.249 18.4133C62.0315 18.1893 61.8107 17.9685 61.5867 17.751C61.1903 17.3664 61.1808 16.7333 61.5654 16.337ZM11.0138 26.3879C11.5207 26.6072 11.7538 27.1959 11.5345 27.7027C11.4108 27.9887 11.2913 28.2769 11.176 28.5673C10.9722 29.0806 10.3909 29.3315 9.8776 29.1277C9.36429 28.9239 9.11336 28.3426 9.31714 27.8293C9.43989 27.5201 9.56718 27.2132 9.69893 26.9086C9.91821 26.4018 10.5069 26.1686 11.0138 26.3879ZM68.9862 26.3879C69.4931 26.1686 70.0818 26.4018 70.3011 26.9087C70.4328 27.2132 70.5601 27.5201 70.6829 27.8293C70.8866 28.3426 70.6357 28.9239 70.1224 29.1277C69.6091 29.3315 69.0278 29.0806 68.824 28.5673C68.7087 28.2769 68.5892 27.9887 68.4655 27.7028C68.2462 27.1959 68.4793 26.6072 68.9862 26.3879ZM8.01847 38.5148C8.57069 38.523 9.0117 38.9773 9.00349 39.5296C9.00117 39.6861 9 39.8429 9 40C9 40.1571 9.00117 40.3139 9.00349 40.4704C9.0117 41.0227 8.57069 41.477 8.01847 41.4852C7.46625 41.4934 7.01193 41.0524 7.00372 40.5002C7.00124 40.3337 7 40.167 7 40C7 39.833 7.00124 39.6663 7.00372 39.4998C7.01193 38.9476 7.46625 38.5066 8.01847 38.5148ZM71.9815 38.5148C72.5338 38.5066 72.9881 38.9476 72.9963 39.4998C72.9988 39.6663 73 39.833 73 40C73 40.167 72.9988 40.3337 72.9963 40.5002C72.9881 41.0524 72.5338 41.4934 71.9815 41.4852C71.4293 41.477 70.9883 41.0227 70.9965 40.4704C70.9988 40.3139 71 40.1571 71 40C71 39.8429 70.9988 39.6861 70.9965 39.5296C70.9883 38.9773 71.4293 38.523 71.9815 38.5148ZM9.8776 50.8723C10.3909 50.6685 10.9722 50.9194 11.176 51.4327C11.2913 51.7231 11.4108 52.0113 11.5345 52.2972C11.7538 52.8041 11.5207 53.3928 11.0138 53.6121C10.5069 53.8314 9.91821 53.5982 9.69893 53.0913C9.56718 52.7868 9.43989 52.4799 9.31714 52.1707C9.11336 51.6574 9.36429 51.0761 9.8776 50.8723ZM70.1224 50.8723C70.6357 51.0761 70.8866 51.6574 70.6829 52.1707C70.5601 52.4799 70.4328 52.7868 70.3011 53.0914C70.0818 53.5982 69.4931 53.8314 68.9862 53.6121C68.4793 53.3928 68.2462 52.8041 68.4655 52.2973C68.5892 52.0113 68.7087 51.7231 68.824 51.4327C69.0278 50.9194 69.6091 50.6685 70.1224 50.8723ZM16.337 61.5654C16.7333 61.1808 17.3664 61.1903 17.751 61.5867C17.9685 61.8107 18.1893 62.0315 18.4133 62.249C18.8097 62.6336 18.8192 63.2667 18.4346 63.663C18.0499 64.0594 17.4168 64.0689 17.0205 63.6843C16.7821 63.4529 16.5471 63.2179 16.3157 62.9795C15.9311 62.5831 15.9406 61.9501 16.337 61.5654ZM63.663 61.5654C64.0594 61.9501 64.0689 62.5832 63.6843 62.9795C63.4529 63.2179 63.2179 63.4529 62.9795 63.6843C62.5831 64.0689 61.9501 64.0594 61.5654 63.663C61.1808 63.2667 61.1903 62.6336 61.5867 62.249C61.8107 62.0315 62.0315 61.8107 62.249 61.5867C62.6336 61.1903 63.2667 61.1808 63.663 61.5654ZM26.3879 68.9862C26.6072 68.4793 27.1959 68.2462 27.7027 68.4655C27.9887 68.5892 28.2769 68.7087 28.5673 68.824C29.0806 69.0278 29.3315 69.6091 29.1277 70.1224C28.9239 70.6357 28.3426 70.8866 27.8293 70.6829C27.5201 70.5601 27.2132 70.4328 26.9086 70.3011C26.4018 70.0818 26.1686 69.4931 26.3879 68.9862ZM53.6121 68.9862C53.8314 69.4931 53.5982 70.0818 53.0913 70.3011C52.7868 70.4328 52.4799 70.5601 52.1707 70.6829C51.6574 70.8866 51.0761 70.6357 50.8723 70.1224C50.6685 69.6091 50.9194 69.0278 51.4327 68.824C51.7231 68.7087 52.0113 68.5892 52.2972 68.4655C52.8041 68.2462 53.3928 68.4793 53.6121 68.9862ZM38.5148 71.9815C38.523 71.4293 38.9773 70.9883 39.5296 70.9965C39.6861 70.9988 39.8429 71 40 71C40.1571 71 40.3139 70.9988 40.4704 70.9965C41.0227 70.9883 41.477 71.4293 41.4852 71.9815C41.4934 72.5338 41.0524 72.9881 40.5002 72.9963C40.3337 72.9988 40.167 73 40 73C39.833 73 39.6663 72.9988 39.4998 72.9963C38.9476 72.9881 38.5066 72.5338 38.5148 71.9815Z" fill="#D6C41C"/>
</g>
<path d="M41.44 26C41.2533 27.3867 40.6133 29.12 39.52 31.2C38.4267 33.2533 37.12 35.32 35.6 37.4C34.1067 39.4533 32.7067 41.1467 31.4 42.48H39.32V36.76C40.1467 35.5867 40.9867 34.2 41.84 32.6C42.6933 31 43.2533 29.68 43.52 28.64H46.92V42.48H50.76V48.36H46.92V54H39.32V48.36H25.92V42.4C27.36 40.32 28.7867 37.8 30.2 34.84C31.6133 31.88 32.7467 28.9333 33.6 26H41.44Z" fill="#D6C41C"/>
<defs>
<filter id="filter0_di_1_473" x="7" y="7" width="66.5" height="66.5" filterUnits="userSpaceOnUse" color-interpolation-filters="sRGB">
<feFlood flood-opacity="0" result="BackgroundImageFix"/>
<feColorMatrix in="SourceAlpha" type="matrix" values="0 0 0 0 0 0 0 0 0 0 0 0 0 0 0 0 0 0 127 0" result="hardAlpha"/>
<feOffset dx="0.5" dy="0.5"/>
<feColorMatrix type="matrix" values="0 0 0 0 0 0 0 0 0 0 0 0 0 0 0 0 0 0 0.05 0"/>
<feBlend mode="normal" in2="BackgroundImageFix" result="effect1_dropShadow_1_473"/>
<feBlend mode="normal" in="SourceGraphic" in2="effect1_dropShadow_1_473" result="shape"/>
<feColorMatrix in="SourceAlpha" type="matrix" values="0 0 0 0 0 0 0 0 0 0 0 0 0 0 0 0 0 0 127 0" result="hardAlpha"/>
<feOffset dy="0.5"/>
<feComposite in2="hardAlpha" operator="arithmetic" k2="-1" k3="1"/>
<feColorMatrix type="matrix" values="0 0 0 0 0.924844 0 0 0 0 0.9375 0 0 0 0 0.304688 0 0 0 1 0"/>
<feBlend mode="normal" in2="shape" result="effect2_innerShadow_1_473"/>
</filter>
<linearGradient id="paint0_linear_1_473" x1="40" y1="0" x2="40" y2="80" gradientUnits="userSpaceOnUse">
<stop stop-color="white" stop-opacity="0.1"/>
<stop offset="1" stop-color="white" stop-opacity="0"/>
</linearGradient>
</defs>
</svg>
